<svg xmlns="http://www.w3.org/2000/svg" xmlns:xlink="http://www.w3.org/1999/xlink" width="74" height="210.305"
  viewBox="0 0 74 210.305">
  <defs>
    <clipPath id="clip-path">
      <rect id="Rectangle_31" data-name="Rectangle 31" width="74" height="210.305" fill="#fff" />
    </clipPath>
  </defs>
  <g id="Group_93" data-name="Group 93" style="isolation: isolate">
    <g id="Group_92" data-name="Group 92" clip-path="url(#clip-path)">
      <path id="Path_36" data-name="Path 36"
        d="M68.883,139.562,29.592,169.349l-.267,34.212a10.177,10.177,0,1,1-10.13-.029v-26.3L2.2,190.114v88.43H21.835V236.6h.028l-.037-.045,22.912-18.93V189.289a10.175,10.175,0,1,1,10.418.2v33h-.043l.043.052-22.9,18.922v37.086H43.571l.156-19.918a10.176,10.176,0,1,1,10.13.029v19.889h21.22V145.755Z"
        transform="translate(-1.076 -68.24)" fill="black" />
      <path id="Path_37" data-name="Path 37"
        d="M33.337,0a33.335,33.335,0,0,0-5.749,66.171l.177-22.683a11.143,11.143,0,1,1,11.092.032V66.212A33.336,33.336,0,0,0,33.337,0"
        fill="black" />
    </g>
  </g>
</svg>