<svg xmlns="http://www.w3.org/2000/svg" xmlns:xlink="http://www.w3.org/1999/xlink" width="119" height="56.05" viewBox="0 0 119 56.05">
  <defs>
    <clipPath id="clip-path">
      <rect id="Rectangle_28" data-name="Rectangle 28" width="17.7" height="50.302" fill="none"/>
    </clipPath>
  </defs>
  <g id="Group_102" data-name="Group 102" transform="translate(-231 -12.95)">
    <text id="Digital_Privilege" data-name="Digital 
Privilege" transform="translate(257 39)" fill="#3e31f4" font-size="22" font-family="CeraPro-Medium, Cera Pro" font-weight="500"><tspan fill="#000"><tspan x="0" y="0">Digital</tspan><tspan y="0" font-family="CeraPro-Black, Cera Pro" font-weight="800"> </tspan></tspan><tspan font-family="CeraPro-Black, Cera Pro" font-weight="800"><tspan x="0" y="24">Privilege</tspan></tspan></text>
    <g id="Group_85" data-name="Group 85" transform="translate(231 12.95)" clip-path="url(#clip-path)">
      <path id="Path_34" data-name="Path 34" d="M18.15,139.562l-9.4,7.125-.064,8.183a2.434,2.434,0,1,1-2.423-.007v-6.291L2.2,151.653V172.8H6.9V162.773H6.9l-.009-.011,5.48-4.528v-6.779a2.434,2.434,0,1,1,2.492.048V159.4h-.01l.01.013-5.478,4.526v8.87H12.1l.037-4.764a2.434,2.434,0,1,1,2.423.007V172.8h5.075V141.043Z" transform="translate(-1.931 -122.503)" fill="#3e31f4"/>
      <path id="Path_35" data-name="Path 35" d="M7.974,0A7.973,7.973,0,0,0,6.6,15.827L6.641,10.4a2.665,2.665,0,1,1,2.653.008v5.428A7.973,7.973,0,0,0,7.974,0" fill="#3e31f4"/>
    </g>
  </g>
</svg>
